HIERARCHY
ROOT Hips
{
	OFFSET 0.000000 0.000000 0.000000 
	CHANNELS 6 Xposition Yposition Zposition Zrotation Yrotation Xrotation
	JOINT LeftUpLeg
	{
		OFFSET 1.363060 -1.794630 0.839290 
		CHANNELS 3 Zrotation Yrotation Xrotation
		JOINT LeftLeg
		{
			OFFSET 2.448110 -6.726130 0.000000 
			CHANNELS 3 Zrotation Yrotation Xrotation
			JOINT LeftFoot
			{
				OFFSET 2.562200 -7.039590 0.000000 
				CHANNELS 3 Zrotation Yrotation Xrotation
				JOINT LeftToeBase
				{
					OFFSET 0.157640 -0.433110 2.322550 
					CHANNELS 3 Zrotation Yrotation Xrotation
					End Site
					{
						OFFSET 0.000000 0.000000 0.000000 
					}
				}
			}
		}
	}
	JOINT RightUpLeg
	{
		OFFSET -1.305520 -1.794630 0.839290 
		CHANNELS 3 Zrotation Yrotation Xrotation
		JOINT RightLeg
		{
			OFFSET -2.542530 -6.985550 0.000000 
			CHANNELS 3 Zrotation Yrotation Xrotation
			JOINT RightFoot
			{
				OFFSET -2.568260 -7.056230 0.000000 
				CHANNELS 3 Zrotation Yrotation Xrotation
				JOINT RightToeBase
				{
					OFFSET -0.164730 -0.452590 2.363150 
					CHANNELS 3 Zrotation Yrotation Xrotation
					End Site
					{
						OFFSET 0.000000 0.000000 0.000000 
					}
				}
			}
		}
	}
	JOINT Spine
	{
		OFFSET 0.028270 2.035590 -0.193380 
		CHANNELS 3 Zrotation Yrotation Xrotation
		JOINT Spine1
		{
			OFFSET 0.056720 2.048850 -0.042750 
			CHANNELS 3 Zrotation Yrotation Xrotation
			JOINT Neck1
			{
				OFFSET -0.054170 1.746240 0.172020 
				CHANNELS 3 Zrotation Yrotation Xrotation
				JOINT Head
				{
					OFFSET 0.104070 1.761360 -0.123970 
					CHANNELS 3 Zrotation Yrotation Xrotation
					End Site
					{
						OFFSET 0.000000 0.000000 0.000000 
					}
				}
			}
			JOINT LeftArm
			{
				OFFSET 3.362410 1.200890 -0.311210 
				CHANNELS 3 Zrotation Yrotation Xrotation
				JOINT LeftForeArm
				{
					OFFSET 4.983000 -0.000000 -0.000000 
					CHANNELS 3 Zrotation Yrotation Xrotation
					JOINT LeftHand
					{
						OFFSET 3.483560 -0.000000 -0.000000 
						CHANNELS 3 Zrotation Yrotation Xrotation
						JOINT LeftHandIndex1
						{
							OFFSET 0.715260 -0.000000 -0.000000 
							CHANNELS 3 Zrotation Yrotation Xrotation
							End Site
							{
								OFFSET 0.000000 0.000000 0.000000 
							}
						}
					}
				}
			}
			JOINT RightArm
			{
				OFFSET -3.136600 1.374050 -0.404650 
				CHANNELS 3 Zrotation Yrotation Xrotation
				JOINT RightForeArm
				{
					OFFSET -5.241900 -0.000000 -0.000000 
					CHANNELS 3 Zrotation Yrotation Xrotation
					JOINT RightHand
					{
						OFFSET -3.444170 -0.000000 -0.000000 
						CHANNELS 3 Zrotation Yrotation Xrotation
						JOINT RightHandIndex1
						{
							OFFSET -0.622530 -0.000000 -0.000000 
							CHANNELS 3 Zrotation Yrotation Xrotation
							End Site
							{
								OFFSET 0.000000 0.000000 0.000000 
							}
						}
					}
				}
			}
		}
	}
}
MOTION
Frames: 18
Frame Time: 0.041667
-16.025171 16.920799 1.273842 -21.873322 15.917235 164.903738 -5.102613 33.227930 -113.436740 31.285244 13.095176 127.937723 13.157508 4.597269 69.635974 8.313000 16.344700 53.682500 -11.791184 -6.514837 -11.438685 0.199201 -1.069606 2.556309 2.723347 -10.405983 0.679563 -10.802400 -17.837000 62.138200 -1.793374 2.726623 -2.531150 -9.668139 1.497444 -2.180796 16.615505 9.863421 15.404116 4.684600 5.235000 3.752000 28.852585 -17.106659 -84.741671 41.466032 -42.341255 -34.187156 0.503473 -0.713787 13.634031 -7.125000 0.000000 0.000000 -45.528538 9.883481 -63.251297 -25.717620 38.413147 -15.422435 5.091375 10.980123 -25.215931 7.125000 0.000000 0.000000 
-15.995572 16.933150 1.234674 -21.544219 15.332062 164.371845 -5.043885 31.437034 -114.217505 30.818278 13.401956 127.576763 12.427884 -6.831898 67.462655 7.373200 15.638200 50.271900 -10.885824 -6.979094 -11.467031 0.337128 -1.151276 2.467406 5.079585 -14.709260 -0.337834 -10.239200 -17.542200 60.284800 -1.720030 2.581836 -2.444077 -9.654844 1.422093 -2.241733 16.503947 10.029161 14.591362 4.618700 5.283200 3.411400 28.977461 -17.151516 -84.860262 41.382080 -42.346416 -34.099861 0.486537 -0.691056 13.335331 -7.125000 0.000000 0.000000 -45.552661 9.637473 -63.591000 -25.582788 38.276028 -15.310592 5.142303 10.934195 -25.069351 7.125000 0.000000 0.000000 
-15.965529 16.955405 1.191834 -21.199850 14.769715 163.823323 -4.938420 29.591954 -115.190253 30.267951 13.730874 127.211882 10.969403 -16.888139 63.122275 6.042400 14.469300 45.151700 -9.948199 -7.486809 -11.368806 0.452246 -1.250311 2.351196 7.291651 -18.973030 -0.961416 -9.477900 -17.105600 57.728500 -1.640483 2.463315 -2.362938 -9.608787 1.359486 -2.321168 16.308631 10.202919 13.597308 4.517500 5.327100 2.995300 29.124525 -17.203276 -84.958296 41.240964 -42.334061 -33.952439 0.459736 -0.657570 13.039305 -7.125000 0.000000 0.000000 -45.574726 9.403033 -63.947887 -25.395485 38.106151 -15.159422 5.199086 10.894221 -24.896135 7.125000 0.000000 0.000000 
-15.936710 16.984447 1.145879 -20.864641 14.238613 163.265741 -4.834274 27.733316 -116.394742 29.773245 13.987647 126.871956 9.008368 -24.811609 56.251358 4.105200 12.299000 36.798200 -9.015366 -8.016421 -11.148993 0.534303 -1.359896 2.230920 9.017646 -22.582994 -0.974683 -8.594800 -16.539700 54.677800 -1.554165 2.366219 -2.290427 -9.489133 1.307797 -2.420993 16.037924 10.383118 12.423413 4.398300 5.366300 2.506200 29.262633 -17.238489 -85.003741 41.031314 -42.288906 -33.739837 0.423626 -0.613931 12.739379 -7.125000 0.000000 0.000000 -45.624278 9.205575 -64.342390 -25.151271 37.914025 -14.962557 5.259436 10.853040 -24.678926 7.125000 0.000000 0.000000 
-15.909670 17.020276 1.095807 -20.532764 13.743151 162.712063 -4.628001 25.940859 -117.706821 29.510690 14.066968 126.510370 7.202369 -29.477375 47.090025 1.765200 8.358800 23.809200 -8.117584 -8.529714 -10.796411 0.592423 -1.460564 2.150685 9.973431 -24.836058 -0.445115 -7.888200 -16.036400 52.158900 -1.471852 2.271961 -2.240012 -9.372828 1.254165 -2.596663 15.368571 10.604628 10.896720 4.604500 5.389300 2.063100 29.386573 -17.244210 -84.899736 40.770419 -42.222393 -33.471249 0.383216 -0.564353 12.401507 -7.125000 0.000000 0.000000 -45.662747 9.066094 -64.755644 -24.835797 37.682407 -14.718492 5.325002 10.821078 -24.417900 7.125000 0.000000 0.000000 
-15.885413 17.060891 1.041172 -20.177386 13.274215 162.171624 -4.328291 24.213512 -119.113658 29.426884 14.026200 126.061753 6.430994 -30.861413 37.034815 0.056900 1.539700 4.235200 -7.274940 -8.991998 -10.294806 0.646509 -1.533029 2.148540 10.071406 -25.328039 0.226606 -7.701700 -15.895400 51.480900 -1.396048 2.197779 -2.207791 -9.263275 1.212258 -2.825542 15.115411 10.759746 9.420816 4.479500 5.407700 1.379400 29.496647 -17.248506 -84.620673 40.496609 -42.152149 -33.178521 0.342314 -0.511943 12.003812 -7.125000 0.000000 0.000000 -45.666025 8.970107 -65.147338 -24.461388 37.408995 -14.440082 5.398112 10.806511 -24.116373 7.125000 0.000000 0.000000 
-15.865050 17.103174 0.982643 -19.778088 12.827470 161.643571 -4.033986 22.530425 -120.652157 29.426527 13.979254 125.456279 6.756757 -29.435242 27.772609 1.090700 -6.637000 -18.644200 -6.500162 -9.390327 -9.653812 0.702288 -1.567703 2.228733 9.342931 -24.009577 0.871442 -8.170500 -16.243200 53.174600 -1.324995 2.146743 -2.192082 -9.182030 1.179311 -3.104671 14.877776 10.886739 7.761010 4.380100 5.399600 0.621300 29.592369 -17.272620 -84.155543 40.223791 -42.090439 -32.876357 0.303781 -0.459011 11.532765 -7.125000 0.000000 0.000000 -45.628342 8.908636 -65.512213 -24.024067 37.087459 -14.125147 5.480477 10.814627 -23.791784 7.125000 0.000000 0.000000 
-15.849027 17.149797 0.918550 -19.320963 12.385643 161.103831 -3.696838 20.858271 -122.224964 29.448769 13.994873 124.630456 7.359311 -25.858577 20.561560 4.158500 -12.368400 -37.048000 -5.808097 -9.753664 -8.898090 0.746479 -1.571591 2.360610 7.944425 -21.267363 1.656551 -9.050000 -16.839800 56.263000 -1.255775 2.113744 -2.187933 -9.135541 1.153471 -3.420700 14.649363 10.962439 5.957544 4.307700 5.357200 -0.186900 29.680098 -17.320496 -83.529578 39.947434 -42.036980 -32.562120 0.267536 -0.405736 10.985702 -7.125000 0.000000 0.000000 -45.557407 8.863963 -65.855988 -23.527570 36.715724 -13.773316 5.568497 10.844418 -23.473743 7.125000 0.000000 0.000000 
-15.837010 17.197533 0.850118 -18.832183 11.946835 160.523562 -3.456208 19.215179 -123.796324 29.168610 14.219247 123.392003 7.287619 -22.653404 20.112830 5.119100 -13.516700 -41.334900 -5.225910 -10.102527 -8.067927 0.763736 -1.556512 2.496074 6.149859 -17.786166 2.837328 -9.953500 -17.383600 59.332900 -1.184109 2.094017 -2.185972 -9.094321 1.132655 -3.726509 14.303538 10.925314 4.140056 4.189900 5.267100 -0.950200 29.763033 -17.379317 -82.808883 39.647044 -41.978687 -32.224562 0.231140 -0.350729 10.375889 -7.125000 0.000000 0.000000 -45.477867 8.822774 -66.199337 -22.999289 36.314223 -13.400024 5.669426 10.877316 -23.160843 7.125000 0.000000 0.000000 
-15.828108 17.244823 0.778125 -18.322732 11.504010 159.888901 -3.263963 17.664082 -125.263466 28.786090 14.492163 121.870098 7.008513 -19.823235 20.772098 5.659300 -14.089900 -43.598700 -4.764023 -10.464509 -7.192109 0.754026 -1.531825 2.597587 4.361635 -14.405712 4.418311 -10.652300 -17.760700 61.647100 -1.105601 2.070137 -2.175711 -9.010017 1.111361 -3.984370 13.815253 10.776044 2.366213 4.016600 5.135600 -1.635800 29.834226 -17.411567 -82.060885 39.294653 -41.893625 -31.846270 0.191311 -0.292302 9.719471 -7.125000 0.000000 0.000000 -45.440280 8.794210 -66.600498 -22.444550 35.904237 -13.004991 5.810606 10.879173 -22.824228 7.125000 0.000000 0.000000 
-15.821766 17.289888 0.703462 -17.793181 11.073059 159.202801 -3.112044 16.248645 -126.554172 28.311966 14.796479 120.059106 6.663206 -17.465651 22.052110 5.864800 -14.296000 -44.436700 -4.406422 -10.832982 -6.300229 0.732942 -1.503618 2.655962 2.947023 -11.788338 6.119544 -11.092900 -17.980300 63.083000 -1.020943 2.040442 -2.153275 -8.876273 1.090035 -4.173579 13.216269 10.529671 0.671777 3.805300 4.972100 -2.231100 29.902631 -17.396909 -81.324525 38.876953 -41.772439 -31.412983 0.142128 -0.228046 9.030975 -7.125000 0.000000 0.000000 -45.465109 8.786712 -67.092368 -21.859216 35.484052 -12.578551 5.978988 10.827721 -22.424086 7.125000 0.000000 0.000000 
-15.810861 17.299458 0.626795 -17.284779 10.587104 158.419465 -3.075162 14.839215 -127.437115 27.781087 15.116097 117.991356 6.337541 -15.535693 23.054058 5.914900 -14.345300 -44.639100 -3.692699 -11.390872 -6.163091 0.762294 -1.549233 2.555828 3.578595 -13.431067 7.452340 -10.894600 -17.883100 62.438800 -0.926655 1.987935 -2.111589 -8.659703 1.054341 -4.275140 12.576854 10.228057 -0.966238 3.603400 4.793400 -2.772700 29.969350 -17.337781 -80.658401 38.373615 -41.602775 -30.907219 0.077309 -0.154348 8.340122 -7.125000 0.000000 0.000000 -45.593572 8.814443 -67.730598 -21.215063 35.050257 -12.100574 6.176547 10.725228 -21.909847 7.125000 0.000000 0.000000 
-15.798844 17.306468 0.550685 -16.784508 10.097596 157.572578 -3.077812 13.474004 -128.120751 27.185128 15.443857 115.687323 6.036476 -13.925498 23.934196 5.830500 -14.262100 -44.297800 -3.007618 -11.973883 -5.990359 0.782164 -1.603707 2.453334 4.164384 -15.097507 8.869332 -10.618900 -17.743500 61.537500 -0.835736 1.919165 -2.056938 -8.425294 1.014789 -4.331318 11.977927 9.916931 -2.596863 3.457600 4.615800 -3.318900 30.053184 -17.253489 -80.055966 37.790372 -41.395489 -30.325467 -0.002511 -0.071570 7.667098 -7.125000 0.000000 0.000000 -45.803016 8.894968 -68.550016 -20.477206 34.569327 -11.554302 6.390159 10.582490 -21.236539 7.125000 0.000000 0.000000 
-15.785602 17.310585 0.475910 -16.294111 9.606614 156.652457 -3.148829 12.138937 -128.600498 26.518248 15.774256 113.153100 5.782739 -12.689883 24.527411 5.710800 -14.142100 -43.809600 -2.355870 -12.576771 -5.770817 0.793276 -1.668178 2.350501 4.706827 -16.796584 10.334093 -10.225000 -17.534500 60.237800 -0.752875 1.849663 -1.987028 -8.198787 0.981455 -4.362812 11.770115 9.660371 -4.549159 3.145800 4.415000 -3.631200 30.160268 -17.193449 -79.519486 37.163376 -41.175636 -29.696862 -0.093537 0.017017 7.044455 -7.125000 0.000000 0.000000 -46.042295 9.026588 -69.483594 -19.701293 34.065845 -10.985140 6.587032 10.405267 -20.420196 7.125000 0.000000 0.000000 
-15.771804 17.311586 0.402916 -15.834445 9.126708 155.658094 -3.356035 10.823714 -128.917117 25.773881 16.100159 110.402702 5.588471 -11.857607 24.748276 5.640000 -14.070200 -43.519300 -1.756117 -13.184866 -5.501520 0.794787 -1.739698 2.246758 5.174837 -18.486572 11.921284 -9.723200 -17.251200 58.559100 -0.677201 1.782951 -1.907425 -8.016025 0.950266 -4.354408 11.325069 9.307999 -6.279403 3.119200 4.217200 -4.184200 30.306698 -17.204302 -79.077246 36.504106 -40.956382 -29.033448 -0.192808 0.109686 6.503923 -7.125000 0.000000 0.000000 -46.282567 9.186223 -70.459494 -18.936554 33.557472 -10.428578 6.753002 10.212602 -19.520825 7.125000 0.000000 0.000000 
-15.757562 17.310585 0.331702 -15.425386 8.653385 154.598688 -3.737099 9.548781 -129.073928 24.936749 16.416462 107.425215 5.459609 -11.406814 24.811160 5.657500 -14.088100 -43.591300 -1.227644 -13.789096 -5.187891 0.786582 -1.814693 2.144404 5.523887 -20.084920 13.670950 -9.144300 -16.899700 56.588000 -0.608984 1.731596 -1.820903 -7.862883 0.927882 -4.323592 10.923384 8.890256 -7.955706 3.120800 3.996200 -4.725200 30.616335 -17.339575 -79.020806 35.572011 -40.660710 -28.117907 -0.322301 0.231506 6.200561 -7.125000 0.000000 0.000000 -46.518341 9.364348 -71.433864 -18.168760 33.031578 -9.874007 6.891038 10.019576 -18.582715 7.125000 0.000000 0.000000 
-15.742762 17.308137 0.261712 -15.087027 8.198614 153.487131 -4.322027 8.348262 -129.088488 24.002692 16.712010 104.218087 5.381266 -11.208755 24.904134 5.713300 -14.144600 -43.819900 -0.780636 -14.366164 -4.842047 0.770906 -1.889514 2.045592 5.722996 -21.525625 15.598658 -8.543700 -16.504900 54.498200 -0.549810 1.696183 -1.732385 -7.741949 0.913151 -4.269125 10.439934 8.368621 -9.431852 3.066900 3.737400 -5.163000 30.933415 -17.562517 -78.999877 34.653689 -40.378786 -27.219890 -0.451006 0.351508 5.970066 -7.125000 0.000000 0.000000 -46.783532 9.602378 -72.454537 -17.352594 32.470685 -9.292773 7.022928 9.816954 -17.534838 7.125000 0.000000 0.000000 
-15.726294 17.304910 0.192167 -14.827577 7.779931 152.340318 -5.057604 7.232414 -128.949722 22.975210 16.973687 100.783689 5.332639 -11.137677 25.023357 5.763800 -14.195500 -44.026400 -0.409252 -14.891972 -4.476569 0.751460 -1.962099 1.950986 5.751916 -22.769320 17.723486 -7.997600 -16.117500 52.553900 -0.498334 1.676623 -1.645118 -7.651793 0.906092 -4.192990 9.947604 7.752892 -10.696449 2.982000 3.438200 -5.498200 31.284746 -17.864126 -79.076295 33.680112 -40.081136 -26.280880 -0.582086 0.475647 5.862047 -7.125000 0.000000 0.000000 -47.039754 9.868456 -73.447327 -16.507494 31.873232 -8.702453 7.177376 9.609940 -16.429631 7.125000 0.000000 0.000000 
